<mxfile host="app.diagrams.net" modified="2024-05-19T14:03:50.424Z" agent="Mozilla/5.0 (Windows NT 10.0; Win64; x64) AppleWebKit/537.36 (KHTML, like Gecko) Chrome/124.0.0.0 Safari/537.36" version="24.4.4" etag="8FwAa0onizw-RnFMEF7B" type="github">
  <diagram name="Page-1" id="AONNASwHGbtUYUmjS9xI">
    <mxGraphModel>
      <root>
        <mxCell id="0" />
        <mxCell id="1" parent="0" />
      </root>
    </mxGraphModel>
  </diagram>
</mxfile>
